<svg xmlns="http://www.w3.org/2000/svg" fill="none" viewBox="0 0 29 35"><path fill="#fff" d="M.35.62h28.4V34.7H.34z"/><path stroke="#000" stroke-linecap="round" stroke-linejoin="round" stroke-width="1.42" d="M7.69 7.72 8.7 30.88c.4.97 2.84 1.68 6.09 1.68 3.24 0 5.67-.7 6.08-1.68l1.01-23.16"/><ellipse cx="14.79" cy="13.4" stroke="#000" stroke-width="1.42" rx="5.68" ry="1.42"/><path stroke="#000" stroke-linecap="round" stroke-width="1.42" d="M20.89 30.43c0-.37-.61-.72-1.7-.99-1.1-.26-2.58-.41-4.15-.43-1.57 0-3.1.13-4.25.37-1.16.25-1.86.6-1.96.97" opacity=".4"/><ellipse cx="14.79" cy="7.72" stroke="#000" stroke-width="1.42" rx="7.1" ry="1.42"/><circle cx="11.24" cy="19.79" r="2.13" stroke="#000" stroke-width="1.42" opacity=".4"/><circle cx="11.24" cy="26.88" r="2.13" stroke="#000" stroke-width="1.42" opacity=".4"/><circle cx="16.91" cy="16.95" r="2.13" stroke="#000" stroke-width="1.42" opacity=".4"/><circle cx="18.33" cy="24.04" r="2.13" stroke="#000" stroke-width="1.42" opacity=".4"/></svg>