<svg xmlns="http://www.w3.org/2000/svg" fill="none" viewBox="0 0 29 36"><path fill="#fff" d="M.18.98h28.39v34.07H.17z"/><path stroke="#000" stroke-linecap="round" stroke-linejoin="round" stroke-width="1.42" d="m7.27 12.33 1.02 18.9c.4.98 2.84 1.69 6.08 1.69 3.25 0 5.68-.71 6.09-1.69l1.01-18.9"/><path stroke="#000" stroke-linecap="round" stroke-width="1.42" d="M18.63 3.81 16.5 19.43"/><path fill="#000" d="m15.8 22.27-.7-.17.7.17Zm-3.56 4.26-.67-.23.67.23Zm2.86-4.43a5.25 5.25 0 0 0 0 3.12c.1.32.17.53.18.79.02.24 0 .54-.16 1l1.35.45c.2-.6.26-1.1.23-1.54-.03-.44-.14-.8-.23-1.1a3.85 3.85 0 0 1 .01-2.38l-1.38-.34Zm.02 4.91a5.01 5.01 0 0 1-.98 1.94c-.28.28-.61.42-1.19.42v1.42c.85 0 1.58-.22 2.19-.83a6.3 6.3 0 0 0 1.33-2.5l-1.35-.45Zm-2.17 2.36c-.2 0-.26-.06-.28-.08-.04-.04-.1-.14-.13-.38-.06-.5.08-1.27.38-2.16l-1.35-.45a6.87 6.87 0 0 0-.44 2.77c.05.42.19.86.51 1.2.34.36.8.52 1.31.52v-1.42Zm-.03-2.62c.2-.6.62-.8 1.45-1.36.8-.55 1.7-1.3 2.11-2.95l-1.38-.34a3.23 3.23 0 0 1-1.52 2.1c-.63.43-1.62.93-2.01 2.1l1.35.45Zm3.56-4.3.71-2.85-1.38-.34-.7 2.84 1.37.34Z" opacity=".4"/><ellipse cx="14.37" cy="19.43" stroke="#000" stroke-width="1.42" rx="5.68" ry="1.42"/><ellipse cx="14.37" cy="19.43" stroke="#000" stroke-width="1.42" rx="5.68" ry="1.42"/><path stroke="#000" stroke-linecap="round" stroke-width="1.42" d="M20.33 30.79c0-.27-.3-.54-.87-.76-.58-.23-1.4-.41-2.37-.53M9.9 29.9c-.85.28-1.27.62-1.2.97" opacity=".4"/><ellipse cx="14.37" cy="12.33" stroke="#000" stroke-width="1.42" rx="7.1" ry="1.42"/></svg>