<svg xmlns="http://www.w3.org/2000/svg" fill="none" viewBox="0 0 29 35"><path fill="#fff" d="M.18.82h28.39V34.9H.17z"/><ellipse cx="23.39" cy="10.14" stroke="#000" stroke-width="1.42" rx="4.26" ry="1.42" transform="rotate(45 23.4 10.14)"/><path stroke="#000" stroke-width="1.42" d="m12.35 13.15 8.03-6.02m0 14.05 6.02-8.03"/><path stroke="#000" stroke-linecap="round" stroke-linejoin="round" stroke-width="1.42" d="M12.35 13.15 2.71 24.22c-.4.98.82 3.2 2.11 4.49 2.3 2.3 3.52 2.5 4.49 2.1l11.07-9.63"/><path stroke="#000" stroke-width="1.42" d="M12.35 13.15c-.27.27-.1.95.47 1.89.56.94 1.48 2.07 2.54 3.13a17.47 17.47 0 0 0 3.13 2.55c.95.56 1.62.73 1.9.46"/><path stroke="#000" stroke-width="1.42" d="M1.83 19.28v-2.13c0-1.18.96-2.13 2.13-2.13 1.18 0 2.13-.95 2.13-2.13s.95-2.13 2.13-2.13 2.13-.95 2.13-2.13c0-1.17.95-2.13 2.13-2.13h2.13M25.97 20.7v2.13c0 1.17-.96 2.13-2.13 2.13-1.18 0-2.13.95-2.13 2.13 0 1.17-.96 2.13-2.13 2.13h-2.13" opacity=".4"/></svg>