<svg xmlns="http://www.w3.org/2000/svg" fill="none" viewBox="0 0 30 36"><path fill="#fff" d="M0 0h30v36H0z"/><path stroke="#000" stroke-linecap="round" stroke-linejoin="round" stroke-width="1.5" d="m7.75 5.5.54 9.99.53 3.51.43 11.47c.43 1.03 2.57 1.78 6 1.78s5.57-.75 6-1.78L21.68 19l.53-3.51.54-9.99"/><ellipse cx="15.25" cy="15" stroke="#000" stroke-width="1.5" rx="6" ry="1.5"/><path stroke="#000" stroke-linecap="round" stroke-width="1.5" d="M21.24 30.07c.04-.2-.08-.39-.34-.58a4.06 4.06 0 0 0-1.2-.5c-.53-.14-1.17-.26-1.88-.35a21.84 21.84 0 0 0-6.6.25c-.58.13-1.06.29-1.4.47-.33.18-.52.37-.56.57" opacity=".4"/><ellipse cx="15.25" cy="5.5" stroke="#000" stroke-width="1.5" rx="7.5" ry="1.5"/><path stroke="#000" stroke-linecap="round" stroke-linejoin="round" stroke-width="1.5" d="M17.42 31.5v-8.3c0-2.26.28-4.51.83-6.7v0M13 31.5l.06-8.3c.02-2.26-.26-4.51-.81-6.7v0"/></svg>