<svg xmlns="http://www.w3.org/2000/svg" fill="none" viewBox="0 0 379 37"><path fill="#000" d="M44.4 35.22h7.16V21.7h13.53v-7.15H51.56V1H44.4v13.54H30.87v7.15h13.54v13.53ZM0 34.97h30.65v-7.15H11.48l9.18-7.08a3.58 3.58 0 0 0 .04-5.3L11.8 8.4h18.85V1.26H0v5.6l12.35 10.48c.46.4.46 1.13 0 1.54L0 29.26v5.7ZM103.3 24h8.32c.02 2.66-.5 4.93-1.55 6.82a10.19 10.19 0 0 1-4.4 4.23c-1.9.96-4.13 1.44-6.68 1.44-2.06 0-3.88-.36-5.47-1.07a10.64 10.64 0 0 1-4.02-3.12 13.98 13.98 0 0 1-2.46-4.94 24.3 24.3 0 0 1-.83-6.62V15.8c0-2.45.3-4.65.88-6.6.6-1.94 1.44-3.6 2.53-4.96 1.1-1.37 2.44-2.4 4-3.12A12.58 12.58 0 0 1 98.86.05c2.71 0 5 .51 6.86 1.53 1.89 1.01 3.33 2.47 4.34 4.39 1 1.9 1.54 4.17 1.6 6.83h-8.32c.08-1.54-.02-2.75-.3-3.62a2.96 2.96 0 0 0-1.45-1.88 5.68 5.68 0 0 0-2.73-.56 3.9 3.9 0 0 0-1.97.47c-.54.3-.97.82-1.3 1.53-.32.7-.55 1.62-.7 2.77a34.47 34.47 0 0 0-.22 4.24v4.99c0 1.7.06 3.13.17 4.28.12 1.16.33 2.09.64 2.8.32.7.76 1.2 1.31 1.51.57.3 1.3.46 2.2.46a5.7 5.7 0 0 0 2.4-.46c.67-.32 1.17-.9 1.51-1.73.34-.84.47-2.04.39-3.6Zm36.78-8.37v5.35c0 2.55-.32 4.79-.95 6.72a13.58 13.58 0 0 1-2.7 4.87 11.4 11.4 0 0 1-4.17 2.94c-1.58.65-3.35.98-5.3.98-1.96 0-3.75-.33-5.36-.98-1.6-.66-2.99-1.64-4.16-2.94a13.6 13.6 0 0 1-2.7-4.87 21.58 21.58 0 0 1-.95-6.72v-5.35c0-2.55.32-4.8.95-6.74a13.52 13.52 0 0 1 2.68-4.87 11.4 11.4 0 0 1 4.16-2.95c1.6-.66 3.4-1 5.36-1 1.94 0 3.72.34 5.32 1 1.63.67 3.02 1.65 4.17 2.95a13.52 13.52 0 0 1 2.67 4.87c.65 1.94.98 4.2.98 6.74Zm-8.45 5.35v-5.4c0-1.6-.1-2.95-.29-4.07a8.7 8.7 0 0 0-.88-2.72c-.39-.7-.87-1.21-1.46-1.53a4.19 4.19 0 0 0-2.06-.5 4.3 4.3 0 0 0-2.12.5c-.59.32-1.07.83-1.46 1.53-.38.7-.65 1.6-.83 2.72a26.38 26.38 0 0 0-.27 4.07v5.4c0 1.58.1 2.92.27 4.04.18 1.1.45 2.02.83 2.73a3.9 3.9 0 0 0 1.48 1.58c.6.33 1.3.49 2.12.49.78 0 1.46-.16 2.04-.49.6-.34 1.1-.87 1.46-1.58a9 9 0 0 0 .88-2.73c.2-1.12.3-2.46.3-4.04ZM159.91 24h8.33c.01 2.66-.5 4.93-1.56 6.82a10.18 10.18 0 0 1-4.4 4.23c-1.9.96-4.13 1.44-6.67 1.44-2.06 0-3.89-.36-5.48-1.07a10.64 10.64 0 0 1-4.01-3.12 13.97 13.97 0 0 1-2.46-4.94 24.3 24.3 0 0 1-.83-6.62V15.8c0-2.45.3-4.65.88-6.6.6-1.94 1.44-3.6 2.53-4.96 1.1-1.37 2.43-2.4 3.99-3.12a12.58 12.58 0 0 1 5.26-1.07c2.7 0 5 .51 6.86 1.53 1.88 1.01 3.33 2.47 4.33 4.39 1 1.9 1.54 4.17 1.6 6.83h-8.32a10.7 10.7 0 0 0-.29-3.62 2.96 2.96 0 0 0-1.46-1.88 5.68 5.68 0 0 0-2.72-.56 3.9 3.9 0 0 0-1.98.47c-.53.3-.96.82-1.29 1.53-.32.7-.56 1.62-.7 2.77a34.48 34.48 0 0 0-.22 4.24v4.99c0 1.7.06 3.13.17 4.28.11 1.16.32 2.09.63 2.8.33.7.77 1.2 1.32 1.51.56.3 1.3.46 2.19.46a5.7 5.7 0 0 0 2.4-.46c.67-.32 1.18-.9 1.52-1.73.34-.84.47-2.04.38-3.6ZM179.26.56V36h-8.32V.56h8.32Zm17.58 0-11.2 17.96-6.89 8.8-1.58-7.85 4.14-7.78L186.59.56h10.25ZM186.8 36l-6.47-15.97 6.5-4.89 9.8 20.86h-9.83ZM213.2.56V36h-8.34V.56h8.34Zm8.6 0v6.6h-25.3V.56h25.3Zm13.02 7.45L228.2 36h-8.95L230.19.56h5.6l-.98 7.45ZM239.97 36l-6.6-27.99-1.1-7.45h5.7L248.93 36h-8.96Zm.27-13.22v6.6h-15.36v-6.6h15.36ZM259.32.56V36h-8.3V.56h8.3Zm24.56 28.87V36h-14.9v-6.57h14.9ZM271.9.56V36h-8.32V.56h8.32Zm37.63 20.37h-7.35l-.05-5.6h5.94c1 0 1.77-.14 2.34-.43.57-.31.97-.76 1.22-1.34a5.4 5.4 0 0 0 .39-2.2c0-1-.13-1.8-.4-2.42a2.51 2.51 0 0 0-1.23-1.34 4.63 4.63 0 0 0-2.17-.44h-2.92V36h-8.32V.56h11.24c1.9 0 3.6.2 5.09.61 1.49.39 2.75 1 3.8 1.8a7.85 7.85 0 0 1 2.4 3.07c.55 1.22.83 2.65.83 4.3 0 1.45-.27 2.8-.8 4.07a6.52 6.52 0 0 1-2.7 3.1c-1.29.77-3.05 1.18-5.29 1.2l-2.02 2.22ZM309.24 36h-9.13l2.88-6.57h6.25c.84 0 1.5-.18 1.97-.54a3 3 0 0 0 1-1.46 8.45 8.45 0 0 0 0-4.4 2.94 2.94 0 0 0-.9-1.54 2.59 2.59 0 0 0-1.78-.56h-6.25l.05-5.6h7.23l2 2.25c2.12-.1 3.78.23 4.98 1a6.18 6.18 0 0 1 2.53 3.01c.49 1.25.73 2.56.73 3.92 0 2.32-.43 4.26-1.29 5.82a7.96 7.96 0 0 1-3.84 3.5 15.58 15.58 0 0 1-6.43 1.17ZM337.7 8.01 331.1 36h-8.95L333.07.56h5.6l-.98 7.45ZM342.87 36l-6.6-27.99-1.1-7.45h5.7L351.8 36h-8.95Zm.26-13.22v6.6h-15.36v-6.6h15.36ZM353.52.56h12.12c2.37 0 4.42.4 6.16 1.22a8.8 8.8 0 0 1 3.99 3.6 11.39 11.39 0 0 1 1.4 5.9c0 2.02-.25 3.72-.77 5.08a8.9 8.9 0 0 1-2.14 3.38c-.93.88-2.01 1.6-3.26 2.17l-2.7 1.58h-9.52l-.05-6.6h6.7a3 3 0 0 0 1.9-.58c.5-.39.87-.94 1.11-1.66.26-.73.39-1.6.39-2.6 0-1.02-.12-1.9-.37-2.63a3.6 3.6 0 0 0-1.07-1.68 2.63 2.63 0 0 0-1.77-.58h-3.8V36h-8.32V.56ZM369.22 36l-6.28-15.67 8.8-.05 6.4 15.35V36h-8.93Z"/></svg>